<svg xmlns="http://www.w3.org/2000/svg" xmlns:xlink="http://www.w3.org/1999/xlink" version="1.1" id="Layer_1" x="0px" y="0px" viewBox="0 0 1080 1080" style="enable-background:new 0 0 1080 1080;" xml:space="preserve">
<style type="text/css">
	.st0{fill:#FFC33E;}
</style>
<g>
	<path class="st0" d="M880.11,703.37c0,88.96-69.71,161.62-157.47,166.34h-358.1c-32.33,0-58.52-26.19-58.52-58.52   c0-9.68,2.38-19.04,6.77-27.34c4.39-8.3,10.77-15.55,18.77-21.02l180.09-122.85c1.38-0.39,2.71-0.99,3.94-1.86   c5.92-4.12,14.04-2.65,18.16,3.28l30.41,43.73c20.87,30.01,62.1,37.41,92.12,16.54l8.45-5.86c6.32-4.39,7.85-13.05,3.49-19.37   l-4.96-7.13c-2.71-3.88-7.04-5.98-11.43-5.98c-2.77,0-5.53,0.81-7.94,2.5c-18.07,12.6-42.95,8.15-55.52-9.92l-24.57-35.34   c-4.12-5.92-2.68-14.07,3.25-18.2l3.4-2.35c0.51-0.33,0.96-0.69,1.41-1.11l38.19-26.07l19.91-13.56   c24.57-14.29,53.11-22.47,83.58-22.47C805.53,536.79,880.11,611.38,880.11,703.37z"/>
	<path class="st0" d="M785.98,374.18v3.52c0,19.34-9.56,37.44-25.53,48.36L544.78,573.18c-5.74,3.04-12.99,1.38-16.81-4.09   l-32.36-46.56c-3.04-4.39-8.45-6.47-13.62-5.26l-3.97,0.9c-12.36,2.83-17.92,17.26-10.71,27.67l30.68,44.09   c1.59,2.29,2.35,4.87,2.35,7.46c0,2.89-0.93,5.71-2.77,8.03l-18.35,12.51l-10.98,7.49c-0.06,0.03-0.09,0.06-0.15,0.09   c-25.71,16.06-56.09,25.32-88.63,25.32c-92.54,0-167.57-75.04-167.57-167.57s75.04-167.57,167.57-167.57h347.99   C759.78,315.65,785.98,341.88,785.98,374.18z"/>
	<g>
		<path class="st0" d="M568.3,263.9c-11.19-27.34-38.07-46.62-69.38-46.62c-41.32,0-74.92,33.59-74.92,74.92    c0,4.93-4,8.93-8.93,8.93s-8.93-4-8.93-8.93c0-51.19,41.62-92.81,92.81-92.81c39.07,0,72.6,24.27,86.25,58.55    C589.41,268.53,571.88,272.62,568.3,263.9z"/>
	</g>
</g>
</svg>